<svg xmlns="http://www.w3.org/2000/svg" viewBox="0 0 1200 660"><defs><linearGradient id="a" x2="1" y2="1"><stop stop-color="#fbfcfd"/><stop offset="1" stop-color="#e5e9ed"/></linearGradient><linearGradient id="b" x2="1" y2="1"><stop stop-color="#535e69"/><stop offset="1" stop-color="#a5aeb7"/></linearGradient></defs><rect width="1200" height="660" rx="34" fill="url(#a)"/><circle cx="858" cy="340" r="222" fill="#fff" opacity=".76"/><circle cx="690" cy="340" r="191" fill="url(#b)"/><circle cx="690" cy="340" r="140" fill="#edf0f2"/><circle cx="690" cy="340" r="76" fill="#cbd2d8"/><circle cx="690" cy="340" r="30" fill="#69747e"/><g fill="#626d77"><circle cx="690" cy="234" r="12"/><circle cx="786" cy="308" r="12"/><circle cx="749" cy="421" r="12"/><circle cx="631" cy="421" r="12"/><circle cx="594" cy="308" r="12"/></g><path d="M430 286c-36 13-55 41-55 81v75c0 28 23 51 51 51h65c31 0 53-26 48-56l-24-140c-5-29-47-24-85-11Z" fill="#d92535"/><path d="M104 535h286m-286-39h196m-196-39h140" stroke="#b9c2ca" stroke-width="10" stroke-linecap="round"/><text x="91" y="114" fill="#7f8993" font-family="Arial,sans-serif" font-size="22" letter-spacing="6">BRAKE &amp; MAINTENANCE</text></svg>